<?xml version="1.0" encoding="UTF-8"?>
<svg id="katman_1" data-name="katman 1" xmlns="http://www.w3.org/2000/svg" version="1.1" viewBox="0 0 841.89 595.28">
  <defs>
    <style>
      .cls-1 {
        fill: #fff;
      }

      .cls-1, .cls-2 {
        stroke-width: 0px;
      }

      .cls-2 {
        fill: #6cb52d;
      }
    </style>
  </defs>
  <g>
    <path class="cls-2" d="M170.12,251.04c-1.51,3.66-3.46,6.91-5.61,9.82-9.51-9.69-22.81-15.85-37.5-15.85-28.84,0-52.41,23.44-52.41,52.38,0,15.12,6.47,28.74,16.73,38.35l1.95,1.74c9.07,7.67,20.87,12.32,33.7,12.32,27.54,0,50.23-21.49,52.18-48.62,1.56-13.17-2.44-30.04-9.04-50.15ZM98.92,336.19c-1.51,1.95-4.31,2.16-6.26.65s-2.16-4.31-.65-6.26c1.51-1.95,4.31-2.16,6.26-.65,1.84,1.51,2.16,4.31.65,6.26ZM169.81,320.52c-12.86,17.18-40.51,11.36-58.13,12.21,0,0-3.14.21-6.26.65,0,0,1.2-.55,2.7-1.09,12.42-4.31,18.27-5.2,25.83-9.07,14.16-7.25,28.3-23.13,31.13-39.55-5.4,15.77-21.83,29.39-36.74,34.9-10.26,3.79-28.74,7.46-28.74,7.46l-.75-.44c-12.52-6.16-12.97-33.39,9.95-42.15,10.06-3.9,19.57-1.74,30.48-4.31,11.56-2.7,24.97-11.36,30.35-22.68,6,18.27,13.36,46.56.18,64.08Z"/>
    <g>
      <path class="cls-2" d="M208.92,317.93c-1.3-.65-2.16-2.16-2.16-4,0-2.6,2.05-4.76,4.76-4.76.96,0,1.84.31,2.49.65,4.86,3.25,10.06,4.86,14.58,4.86,4.96,0,7.9-2.16,7.9-5.51v-.21c0-4-5.4-5.3-11.36-7.12-7.46-2.16-15.88-5.2-15.88-14.91v-.21c0-9.61,8-15.46,18.03-15.46,5.4,0,11.02,1.51,15.98,4.11,1.61.86,2.81,2.36,2.81,4.42,0,2.7-2.16,4.76-4.86,4.76-.96,0-1.51-.21-2.26-.55-4.11-2.16-8.31-3.46-11.87-3.46-4.55,0-7.12,2.16-7.12,4.96v.21c0,3.79,5.51,5.3,11.46,7.25,7.46,2.26,15.77,5.72,15.77,14.81v.21c0,10.71-8.31,15.98-18.79,15.98-6.63.03-13.67-2.03-19.49-6.03Z"/>
      <path class="cls-2" d="M251.48,277.21c0-3.25,2.49-5.85,5.72-5.85s5.85,2.6,5.85,5.85v3.46c3.79-5.3,9.07-9.51,17.28-9.51,11.87,0,23.54,9.41,23.54,26.37v.21c0,16.86-11.56,26.37-23.54,26.37-8.42,0-13.72-4.21-17.28-8.96v17.93c0,3.25-2.6,5.85-5.85,5.85s-5.72-2.49-5.72-5.85v-55.87ZM292.22,297.74v-.21c0-9.82-6.6-16.21-14.47-16.21s-14.81,6.6-14.81,16.21v.21c0,9.72,6.91,16.21,14.81,16.21,7.87.1,14.47-6.18,14.47-16.21Z"/>
      <path class="cls-2" d="M308.41,277.21c0-3.25,2.49-5.85,5.72-5.85s5.85,2.6,5.85,5.85v2.81c.55-4.31,7.67-8.65,12.76-8.65,3.66,0,5.72,2.36,5.72,5.72,0,3.01-2.05,5.07-4.65,5.61-8.31,1.4-13.93,8.65-13.93,18.68v16.73c0,3.14-2.6,5.72-5.85,5.72s-5.72-2.49-5.72-5.72v-40.9h.1Z"/>
      <path class="cls-2" d="M343.1,277.31c0-3.25,2.49-5.85,5.72-5.85s5.85,2.6,5.85,5.85v40.95c0,3.25-2.6,5.72-5.85,5.72s-5.72-2.49-5.72-5.72v-40.95Z"/>
      <path class="cls-2" d="M360.61,277.31c0-3.25,2.49-5.85,5.72-5.85s5.85,2.6,5.85,5.85v2.36c3.25-4.76,8-8.31,15.88-8.31,11.46,0,18.03,7.67,18.03,19.44v27.34c0,3.25-2.49,5.72-5.72,5.72s-5.85-2.49-5.85-5.72v-23.78c0-7.9-3.9-12.42-10.91-12.42s-11.46,4.76-11.46,12.63v23.67c0,3.25-2.6,5.72-5.85,5.72s-5.72-2.49-5.72-5.72l.03-40.93h0Z"/>
      <path class="cls-2" d="M457.3,271.26c-3.25,0-5.85,2.6-5.85,5.85v3.46c-3.79-5.3-9.07-9.51-17.28-9.51-11.87,0-23.54,9.41-23.54,26.37v.21c0,16.86,11.56,26.37,23.54,26.37,8.42,0,13.72-4.21,17.28-8.86-.55,9.17-6.16,13.93-15.98,13.93-5.85,0-10.91-1.4-15.56-4-.55-.31-1.3-.44-2.05-.44-2.7,0-4.96,2.16-4.96,4.76,0,2.26,1.3,3.9,3.25,4.65,6.16,3.01,12.52,4.55,19.67,4.55,9.17,0,16.32-2.16,20.87-6.81,4.21-4.21,6.47-10.58,6.47-19.12v-35.44c0-3.35-2.6-5.95-5.85-5.95ZM436.88,313.92c-8,0-14.47-6.26-14.47-16.32v-.21c0-9.82,6.6-16.21,14.47-16.21s14.81,6.6,14.81,16.21v.21c.1,9.74-6.81,16.32-14.81,16.32Z"/>
      <path class="cls-2" d="M354.77,257.43c0,3.25-2.6,5.85-5.85,5.85s-5.85-2.6-5.85-5.85,2.6-5.85,5.85-5.85c3.14-.1,5.85,2.49,5.85,5.85Z"/>
    </g>
    <path class="cls-2" d="M476.42,283.47c-3.25,0-5.95-2.7-5.95-5.95s2.7-5.95,5.95-5.95,5.95,2.7,5.95,5.95-2.6,5.95-5.95,5.95ZM476.42,272.45c-2.81,0-5.07,2.26-5.07,5.07s2.26,5.07,5.07,5.07,5.07-2.26,5.07-5.07-2.26-5.07-5.07-5.07ZM478.03,280.87l-1.74-2.7h-1.2v2.7h-.96v-6.81h2.81c1.2,0,2.26.86,2.26,2.05,0,1.51-1.4,2.05-1.74,2.05l1.84,2.7h-1.27ZM476.87,274.92h-1.74v2.36h1.84c.55,0,1.2-.44,1.2-1.2s-.65-1.17-1.3-1.17Z"/>
    <g>
      <path class="cls-2" d="M504.12,311.09c0,5.2-3.33,8.86-7.8,8.86-2.7,0-4.89-1.35-6.16-3.56v3.17h-2.44v-22.87h2.44v9.12c1.27-2.23,3.43-3.56,6.16-3.56,4.44,0,7.8,3.66,7.8,8.83ZM501.52,311.09c0-3.9-2.36-6.65-5.66-6.65s-5.69,2.75-5.69,6.65,2.36,6.68,5.69,6.68c3.33,0,5.66-2.78,5.66-6.68Z"/>
      <path class="cls-2" d="M508.2,324.92l.6-2.1c.6.29,1.27.42,2,.42,1.09,0,1.79-.36,2.44-1.51l.99-2.1-7.35-16.97h2.7l5.92,14.06,5.59-14.06h2.65l-7.72,18.81c-1.17,2.88-2.81,3.95-5.14,4-.96,0-1.9-.21-2.68-.55Z"/>
      <path class="cls-2" d="M558.43,297.09l-9.9,22.48h-2.78l-9.9-22.48h2.78l8.55,19.33,8.5-19.33h2.75Z"/>
      <path class="cls-2" d="M562.54,297.09h2.55l8.34,15.67,8.34-15.67h2.55v22.48h-2.55v-16.97l-8.34,15.67-8.34-15.67v16.97h-2.55v-22.48Z"/>
      <path class="cls-2" d="M588.55,302.65h2.62l4.21,13.64,4.63-13.64h2.13l4.63,13.64,4.21-13.64h2.62l-5.69,16.92h-2.31l-4.47-13.51-4.55,13.51h-2.31l-5.72-16.92Z"/>
      <path class="cls-2" d="M630.87,309.27v10.32h-2.44v-2.65c-1.22,2-3.74,3.04-5.95,3.04-3.56,0-6.18-2.05-6.18-5.4s3.01-5.64,6.65-5.64c1.82,0,3.77.39,5.51.96v-.62c0-2.29-.91-4.91-4.57-4.91-1.69,0-3.4.75-4.94,1.53l-.99-2c2.42-1.22,4.44-1.64,6.08-1.64,4.57,0,6.83,2.91,6.83,7.02ZM628.43,314.26v-2.57c-1.53-.42-3.27-.68-5.09-.68-2.52,0-4.65,1.43-4.65,3.46s1.82,3.33,4.21,3.33c2.23,0,4.89-1.14,5.53-3.53Z"/>
      <path class="cls-2" d="M645.11,302.26v2.18c-3.82,0-6.55,2.36-6.55,5.66v9.46h-2.44v-16.92h2.44v3.3c1.01-2.23,3.43-3.69,6.55-3.69Z"/>
      <path class="cls-2" d="M661.46,315.74l1.51,1.61c-1.48,1.61-4.44,2.62-6.81,2.62-4.52,0-8.57-3.69-8.57-8.89s3.79-8.81,8.34-8.81c5.09,0,8,3.87,8,9.77h-13.85c.36,3.3,2.68,5.72,6.03,5.72,2.03,0,4.31-.88,5.35-2.03ZM650.15,309.84h11.38c-.34-3.04-2.13-5.4-5.51-5.4-2.99.03-5.4,2.13-5.87,5.4Z"/>
      <path class="cls-2" d="M684.01,299.53h-7.56v-2.42h17.67v2.42h-7.56v20.06h-2.55v-20.06h0Z"/>
      <path class="cls-2" d="M711.82,309.27v10.32h-2.44v-2.65c-1.22,2-3.74,3.04-5.95,3.04-3.56,0-6.18-2.05-6.18-5.4s3.01-5.64,6.65-5.64c1.82,0,3.77.39,5.51.96v-.62c0-2.29-.91-4.91-4.57-4.91-1.69,0-3.4.75-4.94,1.53l-.99-2c2.42-1.22,4.44-1.64,6.08-1.64,4.57,0,6.83,2.91,6.83,7.02ZM709.37,314.26v-2.57c-1.53-.42-3.27-.68-5.09-.68-2.52,0-4.65,1.43-4.65,3.46s1.82,3.33,4.21,3.33c2.21,0,4.86-1.14,5.53-3.53Z"/>
      <path class="cls-2" d="M731.23,308.81v10.76h-2.44v-10.45c0-2.75-1.74-4.68-4.21-4.68-2.86,0-5.22,2-5.22,4.34v10.76h-2.44v-16.92h2.44v2.7c.99-1.79,3.17-3.12,5.56-3.12,3.69.05,6.31,2.78,6.31,6.6Z"/>
      <path class="cls-2" d="M735.46,317.64l9.98-12.65h-9.77v-2.31h13.1v1.92l-10,12.65h10.08v2.31h-13.36l-.03-1.92h0Z"/>
      <path class="cls-2" d="M767.37,302.65v16.92h-2.44v-2.7c-.99,1.79-3.17,3.12-5.56,3.12-3.74,0-6.34-2.7-6.34-6.55v-10.76h2.44v10.45c0,2.75,1.74,4.68,4.21,4.68,2.86,0,5.22-2,5.22-4.34v-10.76h2.47v-.05h0Z"/>
    </g>
  </g>
  <path class="cls-2" d="M98.92,336.19c-1.51,1.95-4.31,2.16-6.26.65s-2.16-4.31-.65-6.26c1.51-1.95,4.31-2.16,6.26-.65,1.84,1.51,2.16,4.31.65,6.26Z"/>
  <path class="cls-1" d="M169.81,320.52c-12.86,17.18-40.51,11.36-58.13,12.21,0,0-3.14.21-6.26.65,0,0,1.2-.55,2.7-1.09,12.42-4.31,18.27-5.2,25.83-9.07,14.16-7.25,28.3-23.13,31.13-39.55-5.4,15.77-21.83,29.39-36.74,34.9-10.26,3.79-28.74,7.46-28.74,7.46l-.75-.44c-12.52-6.16-12.97-33.39,9.95-42.15,10.06-3.9,19.57-1.74,30.48-4.31,11.56-2.7,24.97-11.36,30.35-22.68,6,18.27,13.36,46.56.18,64.08Z"/>
</svg>